# xmcd CD database file
#
# Track frame offsets:
#	150
#	15475
#	35680
#	51310
#	70320
#	90442
#	110145
#	131132
#	149815
#	168187
#	184255
#	206307
#	228435
#	245877
#	262280
#	281967
#	296902
#	313260
#	327925
#
# Disc length: 4578 seconds
#
# Revision: 1
# Processed by: cddbd v1.5.1PL0 Copyright (c) Steve Scherf et al.
# Submitted via: CDex 1.51
#
DISCID=3c11e013
DTITLE=Various Artist - Late Night Sax After Dark
DYEAR=1900
DGENRE=Jazz
TTITLE0=Ain't No Sunshine
TTITLE1=Think Twice
TTITLE2=Saving All My Love For You
TTITLE3=I Swear
TTITLE4=Your Love Is King
TTITLE5=Sexual Healing
TTITLE6=Careless Whisper
TTITLE7=Right Here Waiting
TTITLE8=If You Don't Know Me By Now
TTITLE9=Nothing Compares 2 U
TTITLE10=Let's Get It On
TTITLE11=Just The Way You Are
TTITLE12=If You Leave me Now
TTITLE13=Heard It Through The Grapevine
TTITLE14=(Everything I Do) I Do It For You
TTITLE15=Songbird
TTITLE16=Three Times A Lady
TTITLE17=When A Man Loves A Woman
TTITLE18=Late Night Love
EXTD=
EXTT0=
EXTT1=
EXTT2=
EXTT3=
EXTT4=
EXTT5=
EXTT6=
EXTT7=
EXTT8=
EXTT9=
EXTT10=
EXTT11=
EXTT12=
EXTT13=
EXTT14=
EXTT15=
EXTT16=
EXTT17=
EXTT18=
PLAYORDER=
